<svg xmlns="http://www.w3.org/2000/svg" width="512" height="512" viewBox="0 0 512 512">
  <g transform="translate(256, 256)">
    <polygon points="69.3,-40.0 69.3,40.0 0.0,80.0 -69.3,40.0 -69.3,-40.0 -0.0,-80.0" fill="none" stroke="#FFFFFF" stroke-width="5"/>
    <polygon points="45.0,-156.0 45.0,-104.0 0.0,-78.0 -45.0,-104.0 -45.0,-156.0 -0.0,-182.0" fill="none" stroke="#FFFFFF" stroke-width="2"/>
    <polygon points="158.0,-91.0 158.0,-39.0 113.0,-13.0 68.0,-39.0 68.0,-91.0 113.0,-117.0" fill="none" stroke="#FFFFFF" stroke-width="2"/>
    <polygon points="158.0,39.0 158.0,91.0 113.0,117.0 68.0,91.0 68.0,39.0 113.0,13.0" fill="none" stroke="#FFFFFF" stroke-width="2"/>
    <polygon points="45.0,104.0 45.0,156.0 0.0,182.0 -45.0,156.0 -45.0,104.0 -0.0,78.0" fill="none" stroke="#FFFFFF" stroke-width="2"/>
    <polygon points="-68.0,39.0 -68.0,91.0 -113.0,117.0 -158.0,91.0 -158.0,39.0 -113.0,13.0" fill="none" stroke="#FFFFFF" stroke-width="2"/>
    <polygon points="-68.0,-91.0 -68.0,-39.0 -113.0,-13.0 -158.0,-39.0 -158.0,-91.0 -113.0,-117.0" fill="none" stroke="#FFFFFF" stroke-width="2"/>
    <circle cx="0" cy="-130" r="9" fill="#FFFFFF"/>
    <circle cx="113" cy="-65" r="9" fill="#FFFFFF"/>
    <circle cx="113" cy="65" r="9" fill="#FFFFFF"/>
    <circle cx="0" cy="130" r="9" fill="#FFFFFF"/>
    <circle cx="-113" cy="65" r="9" fill="#FFFFFF"/>
    <circle cx="-113" cy="-65" r="9" fill="#FFFFFF"/>
  </g>
</svg>