<svg xmlns="http://www.w3.org/2000/svg" width="512" height="512" viewBox="0 0 512 512">
  <defs>
    <linearGradient id="bg" x1="0%" y1="0%" x2="100%" y2="100%">
      <stop offset="0%" style="stop-color:#0F1117"/><stop offset="100%" style="stop-color:#1A1D27"/>
    </linearGradient>
    <filter id="glow"><feGaussianBlur stdDeviation="4" result="b"/><feMerge><feMergeNode in="b"/><feMergeNode in="SourceGraphic"/></feMerge></filter>
  </defs>
  <rect width="512" height="512" rx="112" fill="url(#bg)"/>
  <g transform="translate(256, 256)" filter="url(#glow)">
    <polygon points="69.3,-40.0 69.3,40.0 0.0,80.0 -69.3,40.0 -69.3,-40.0 -0.0,-80.0" fill="none" stroke="#2563EB" stroke-width="4"/>
    <polygon points="69.3,-40.0 69.3,40.0 0.0,80.0 -69.3,40.0 -69.3,-40.0 -0.0,-80.0" fill="#2563EB" opacity="0.06"/>
    <polygon points="45.0,-156.0 45.0,-104.0 0.0,-78.0 -45.0,-104.0 -45.0,-156.0 -0.0,-182.0" fill="none" stroke="#2A2D37" stroke-width="2" opacity="0.6"/>
    <polygon points="158.0,-91.0 158.0,-39.0 113.0,-13.0 68.0,-39.0 68.0,-91.0 113.0,-117.0" fill="none" stroke="#2A2D37" stroke-width="2" opacity="0.6"/>
    <polygon points="158.0,39.0 158.0,91.0 113.0,117.0 68.0,91.0 68.0,39.0 113.0,13.0" fill="none" stroke="#2A2D37" stroke-width="2" opacity="0.6"/>
    <polygon points="45.0,104.0 45.0,156.0 0.0,182.0 -45.0,156.0 -45.0,104.0 -0.0,78.0" fill="none" stroke="#2A2D37" stroke-width="2" opacity="0.6"/>
    <polygon points="-68.0,39.0 -68.0,91.0 -113.0,117.0 -158.0,91.0 -158.0,39.0 -113.0,13.0" fill="none" stroke="#2A2D37" stroke-width="2" opacity="0.6"/>
    <polygon points="-68.0,-91.0 -68.0,-39.0 -113.0,-13.0 -158.0,-39.0 -158.0,-91.0 -113.0,-117.0" fill="none" stroke="#2A2D37" stroke-width="2" opacity="0.6"/>
    <circle cx="0" cy="-130" r="8" fill="#60A5FA" opacity="0.8"/>
    <circle cx="113" cy="-65" r="8" fill="#60A5FA" opacity="0.8"/>
    <circle cx="113" cy="65" r="8" fill="#60A5FA" opacity="0.8"/>
    <circle cx="0" cy="130" r="8" fill="#60A5FA" opacity="0.8"/>
    <circle cx="-113" cy="65" r="8" fill="#60A5FA" opacity="0.8"/>
    <circle cx="-113" cy="-65" r="8" fill="#60A5FA" opacity="0.8"/>
  </g>
</svg>